# xmcd CD database file
#
# Track frame offsets:
#	150
#	25013
#	49175
#	74767
#	110864
#	332550
#
# Disc length: 4440 seconds
#
# Revision: 0
# Processed by: cddbd v1.5PL3 Copyright (c) Steve Scherf et al.
# Submitted via: CDex 1.51
#
DISCID=56115606
DTITLE=kazami - Dan-de-li-on
DYEAR=2004
DGENRE=J ポップ
TTITLE0=Dan-de-li-on
TTITLE1=たまゆら
TTITLE2=Dan-de-li-on (Tsutchie mix)
TTITLE3=Dan-de-li-on (vocalless ver.)
TTITLE4=データ
TTITLE5=データ
EXTD=YEAR: 2004
EXTT0=
EXTT1=
EXTT2=
EXTT3=
EXTT4=
EXTT5=
PLAYORDER=
